<svg xmlns="http://www.w3.org/2000/svg" viewBox="0 0 1692 929" role="img" aria-labelledby="title desc">
  <title id="title">Generic HVAC service illustration</title>
  <desc id="desc">A non-branded furnace and boiler room style placeholder illustration for a heating service website.</desc>
  <defs>
    <linearGradient id="wall" x1="0" x2="1" y1="0" y2="1">
      <stop offset="0" stop-color="#12283b" />
      <stop offset="0.48" stop-color="#1c364c" />
      <stop offset="1" stop-color="#071725" />
    </linearGradient>
    <linearGradient id="steel" x1="0" x2="1">
      <stop offset="0" stop-color="#d8e1e8" />
      <stop offset="0.5" stop-color="#f7fafc" />
      <stop offset="1" stop-color="#aebbc6" />
    </linearGradient>
    <linearGradient id="darkSteel" x1="0" x2="1">
      <stop offset="0" stop-color="#5f7180" />
      <stop offset="1" stop-color="#2d3e4c" />
    </linearGradient>
    <filter id="softShadow" x="-20%" y="-20%" width="140%" height="140%">
      <feDropShadow dx="0" dy="24" stdDeviation="26" flood-color="#000000" flood-opacity="0.35" />
    </filter>
  </defs>
  <rect width="1692" height="929" fill="url(#wall)" />
  <path d="M0 675h1692v254H0z" fill="#0b1b29" opacity="0.72" />
  <path d="M0 0h760v929H0z" fill="#071725" opacity="0.55" />
  <g opacity="0.2" stroke="#8fa6b8" stroke-width="2">
    <path d="M0 176h1692M0 352h1692M0 528h1692" />
    <path d="M930 0v929M1120 0v929M1310 0v929M1500 0v929" />
  </g>
  <g transform="translate(880 185)" filter="url(#softShadow)">
    <rect x="28" y="170" width="360" height="390" rx="22" fill="url(#steel)" />
    <rect x="56" y="208" width="304" height="92" rx="12" fill="#263a49" />
    <circle cx="114" cy="254" r="22" fill="#d9752b" />
    <circle cx="176" cy="254" r="22" fill="#93a5b3" />
    <path d="M82 342h252M82 398h252M82 454h252" stroke="#8a9aa6" stroke-width="10" stroke-linecap="round" />
    <rect x="112" y="560" width="192" height="34" fill="#172a3a" />
    <path d="M130 170V70c0-34 28-62 62-62h224" fill="none" stroke="#9daeba" stroke-width="28" stroke-linecap="round" />
    <path d="M388 214h164c44 0 80 36 80 80v112" fill="none" stroke="#758895" stroke-width="22" stroke-linecap="round" />
  </g>
  <g transform="translate(1190 304)" filter="url(#softShadow)">
    <ellipse cx="165" cy="390" rx="168" ry="34" fill="#030a10" opacity="0.45" />
    <rect x="40" y="110" width="250" height="290" rx="24" fill="url(#darkSteel)" />
    <ellipse cx="165" cy="112" rx="125" ry="42" fill="#b9c5ce" />
    <ellipse cx="165" cy="112" rx="82" ry="22" fill="#637785" />
    <rect x="76" y="174" width="178" height="78" rx="10" fill="#172a3a" />
    <path d="M102 307h126" stroke="#d9752b" stroke-width="12" stroke-linecap="round" />
    <path d="M102 342h84" stroke="#dfe7ed" stroke-width="10" stroke-linecap="round" opacity="0.8" />
    <path d="M165 70V8M228 88l42-58M101 88 58 30" stroke="#dfe7ed" stroke-width="16" stroke-linecap="round" />
  </g>
  <g transform="translate(710 630)" filter="url(#softShadow)">
    <rect x="0" y="0" width="390" height="88" rx="18" fill="#162838" />
    <rect x="34" y="24" width="124" height="40" rx="8" fill="#d9752b" />
    <path d="M196 44h142" stroke="#aebbc6" stroke-width="14" stroke-linecap="round" />
    <circle cx="358" cy="44" r="18" fill="#e7edf2" />
  </g>
  <g opacity="0.45">
    <circle cx="1390" cy="190" r="108" fill="#d9752b" opacity="0.16" />
    <circle cx="980" cy="142" r="180" fill="#ffffff" opacity="0.06" />
  </g>
</svg>
